<svg id="Capa_1" enable-background="new 0 0 512 512" height="512" viewBox="0 0 512 512" width="512" xmlns="http://www.w3.org/2000/svg"><path d="m492.74 56.27-61.74-10.89v-35.38c0-5.523-4.477-10-10-10h-330c-5.523 0-10 4.477-10 10v35.38l-61.74 10.89c-4.699.822-8.267 4.801-8.26 9.41.001.727 76.99 438.06 76.99 438.06.48 2.72 2.09 5.15 4.42 6.66 1.62 1.04 3.5 1.6 5.43 1.6.83 0 158.16-39.69 158.16-39.69l155.71 39.39c2.67.67 5.56.19 7.88-1.3 2.33-1.51 3.94-3.94 4.42-6.66l36.65-207.93c.434-2.455-.251-4.88-1.634-6.887-3.485-5.059-10.915-5.79-15.335-1.525-1.39 1.341-2.392 3.03-2.731 4.941l-9.96 56.511v-283.17l48.42 8.54-22.83 129.49c-.433 2.451.249 4.869 1.628 6.872 3.481 5.058 10.903 5.803 15.33 1.548 1.396-1.342 2.402-3.034 2.742-4.95 0 0 24.71-140.316 24.71-140.804.003-4.907-3.324-9.242-8.26-10.106zm-411.74 292.61-48.42-274.66 48.42-8.54zm24.82 140.79-3.12-17.67h72.99zm300.36 0-69.87-17.67h72.98zm4.82-37.67h-310v-432h310z"/><circle cx="458.626" cy="249.76" r="10"/><path d="m381 240h-250c-5.523 0-10 4.478-10 10s4.477 10 10 10h250c5.523 0 10-4.478 10-10s-4.477-10-10-10z"/><path d="m381 200h-250c-5.523 0-10 4.478-10 10s4.477 10 10 10h250c5.523 0 10-4.478 10-10s-4.477-10-10-10z"/><path d="m131 380h41c5.523 0 10-4.478 10-10s-4.477-10-10-10h-41c-5.523 0-10 4.478-10 10s4.477 10 10 10z"/><path d="m256 360h-39c-5.523 0-10 4.478-10 10s4.477 10 10 10h39c5.523 0 10-4.478 10-10s-4.477-10-10-10z"/><path d="m131 300h80c5.51 0 10-4.49 10-10s-4.49-10-10-10h-80c-5.51 0-10 4.49-10 10s4.49 10 10 10z"/><circle cx="256" cy="290" r="10"/><path d="m213.5 400h-82.5c-5.523 0-10 4.478-10 10s4.477 10 10 10h82.5c5.523 0 10-4.478 10-10s-4.477-10-10-10z"/><path d="m213.5 180h85c5.523 0 10-4.478 10-10s-4.477-10-10-10h-85c-5.523 0-10 4.478-10 10s4.477 10 10 10z"/><path d="m147 140h.047s20.998-.1 26.785-.1c17.186 0 31.167-14.557 31.167-32.45 0-10.644-4.948-20.106-12.574-26.027 2.888-4.728 4.575-10.387 4.575-16.467 0-16.518-12.417-29.956-27.681-29.956h-22.319c-5.523 0-10 4.478-10 10v85c0 2.66 1.06 5.211 2.946 7.088 1.874 1.865 4.41 2.912 7.054 2.912zm26.833-20.1c-3.102 0-10.558.028-16.833.055v-24.955h16.833c6.157 0 11.167 5.585 11.167 12.45s-5.01 12.45-11.167 12.45zm-16.833-64.9h12.319c4.164 0 7.681 4.56 7.681 9.956s-3.517 9.956-7.681 9.956c-2.316 0-7.516.021-12.319.041z"/><path d="m340 140h25c5.523 0 10-4.478 10-10s-4.477-10-10-10h-15v-75c0-5.522-4.477-10-10-10s-10 4.478-10 10v85c0 5.522 4.477 10 10 10z"/><path d="m275 140h25c5.523 0 10-4.478 10-10s-4.477-10-10-10h-15v-75c0-5.522-4.477-10-10-10s-10 4.478-10 10v85c0 5.522 4.477 10 10 10z"/><path d="m235 140c5.51 0 10-4.49 10-10v-40c0-5.521-4.49-10-10-10s-10 4.479-10 10v40c0 5.51 4.49 10 10 10z"/><circle cx="235" cy="45" r="10"/><path d="m354.359 359.583c-7.647-2.656-15.337-4.502-19.984-8.084-1.688-1.5-2.205-4.175-1.806-6.314.221-1.184 1.26-5.141 5.362-6.354 4.074-1.206 8.453.021 11.914 1.631 4.234 1.97 9.249 1.007 12.445-2.399 4.999-5.328 3.361-13.924-3.197-17.144-2.016-.99-4.232-1.858-6.616-2.499v-1.42c0-5.522-4.478-10-10-10s-10 4.478-10 10v2.575c-.074.029-.147.05-.222.08-9.68 3.795-17.383 11.329-19.348 21.866-1.803 9.664 1.456 19.041 8.504 24.472 6.898 5.314 16.759 9.141 26.387 12.484 7.256 2.521 7.516 7.882 7.024 10.854-.85 5.137-6.27 11.619-13.947 11.669-8.099.052-9.395-1.235-15.491-5.154-4.811-3.091-11.27-1.541-14.121 3.504-2.642 4.677-.896 10.648 3.636 13.531 6.643 4.225 11.652 6.049 17.577 6.77v2.349c0 5.522 4.478 10 10 10s10-4.478 10-10v-3.617c12.405-4.087 20.295-15.008 22.077-25.791 2.433-14.704-5.684-27.97-20.194-33.009z"/></svg>