<svg id="Capa_1" enable-background="new 0 0 502 502" height="512" viewBox="0 0 502 502" width="512" xmlns="http://www.w3.org/2000/svg"><g fill="rgb(0,0,0)"><path d="m424.164 361.965c0-40.673-33.09-73.763-73.763-73.763h-14.797l-27.404-13.704v-31.466c18.398-15.091 30.749-37.292 32.819-62.365h9.38c13.271 0 24.066-10.796 24.066-24.066v-33.134c0-10.651-6.958-19.704-16.566-22.864v-26.836c0-40.675-33.092-73.767-73.767-73.767h-66.267c-14.255 0-28.09 4.075-40.011 11.784-3.478 2.25-4.474 6.893-2.225 10.371s6.893 4.474 10.371 2.225c9.488-6.136 20.507-9.38 31.864-9.38h66.267c32.404 0 58.767 26.363 58.767 58.767v25.633h-78.115c-23.27 0-42.2-18.931-42.2-42.2 0-4.142-3.357-7.5-7.5-7.5s-7.5 3.358-7.5 7.5c0 6.114.974 12.002 2.759 17.53-.509 13.689-11.798 24.67-25.609 24.67h-25.634v-25.633c0-10.693 2.897-21.158 8.38-30.263 2.137-3.548.992-8.157-2.556-10.294-3.549-2.137-8.158-.993-10.294 2.557-6.889 11.44-10.53 24.58-10.53 38v26.837c-9.608 3.16-16.566 12.212-16.566 22.863v33.133c0 13.27 10.796 24.066 24.066 24.066h9.381c2.07 25.072 14.421 47.273 32.819 62.365v31.467l-27.404 13.705h-14.799c-40.673 0-73.763 33.09-73.763 73.763l-.001 115.968c.002 13.27 10.797 24.066 24.068 24.066h31.092c4.143 0 7.5-3.358 7.5-7.5s-3.357-7.5-7.5-7.5h-31.092c-4.999 0-9.066-4.067-9.066-9.067l.001-115.968c0-32.402 26.361-58.763 58.763-58.763h11.934l26.866 53.726c2.024 4.047 5.693 7.034 10.066 8.195 1.334.354 2.694.528 4.048.528 3.088 0 6.141-.906 8.758-2.65l13.665-9.109v133.108h-63.597c-4.143 0-7.5 3.358-7.5 7.5s3.357 7.5 7.5 7.5h236.762c13.271 0 24.066-10.796 24.066-24.067zm-161.39-34.296 39.407-39.411 21.591 10.797-25.584 51.163c-.104.21-.273.347-.5.407-.225.06-.438.026-.635-.105zm96.691-171.069c0 4.999-4.067 9.066-9.066 9.066h-9.066v-51.266h9.066c4.999 0 9.066 4.067 9.066 9.066zm-216.931 0v-33.134c0-4.999 4.067-9.066 9.066-9.066h9.066l.001 51.267h-9.067c-4.999 0-9.066-4.068-9.066-9.067zm33.133 16.569-.001-58.769h9.066c15.36 0 28.755-8.569 35.662-21.176 10.497 12.909 26.493 21.176 44.389 21.176h61.549v58.769c0 41.538-33.794 75.332-75.332 75.332-41.539 0-75.333-33.793-75.333-75.332zm75.333 90.332c15.234 0 29.596-3.796 42.199-10.484v23.009l-42.199 42.202-42.2-42.202v-23.009c12.604 6.688 26.966 10.484 42.2 10.484zm-46.051 87.02c-.196.131-.411.165-.636.105-.227-.06-.395-.197-.5-.407l-25.584-51.163 21.591-10.797 39.408 39.411zm36.985 136.479v-143.107l9.067-6.044 9.066 6.043v143.108zm134.1-58.2c0 4.687-3.813 8.5-8.5 8.5h-50.833c-4.686 0-8.5-3.813-8.5-8.5v-9.133c0-.276.225-.5.5-.5h66.833c.275 0 .5.224.5.5zm-67.833 21.903c2.638 1.027 5.503 1.597 8.5 1.597h50.833c2.997 0 5.862-.57 8.5-1.597v36.297h-67.833zm91.899 36.297h-9.066v-67.333c0-8.547-6.953-15.5-15.5-15.5h-66.833c-8.547 0-15.5 6.953-15.5 15.5v67.333h-18.134v-133.108l13.666 9.11c2.617 1.745 5.67 2.65 8.757 2.65 1.355 0 2.715-.174 4.048-.528 4.373-1.162 8.042-4.149 10.066-8.196l26.866-53.726h11.932c32.401 0 58.763 26.361 58.763 58.763l.002 115.968c0 5-4.068 9.067-9.067 9.067z"/><path d="m217.867 155.816c4.143 0 7.5-3.358 7.5-7.5v-8.283c0-4.142-3.357-7.5-7.5-7.5s-7.5 3.358-7.5 7.5v8.283c0 4.142 3.357 7.5 7.5 7.5z"/><path d="m284.132 155.816c4.143 0 7.5-3.358 7.5-7.5v-8.283c0-4.142-3.357-7.5-7.5-7.5s-7.5 3.358-7.5 7.5v8.283c0 4.142 3.358 7.5 7.5 7.5z"/><path d="m250.999 197.235c8.55 0 16.532-4.606 20.832-12.021 2.078-3.583.857-8.173-2.727-10.251-3.58-2.077-8.172-.857-10.25 2.726-1.626 2.804-4.636 4.546-7.855 4.546s-6.229-1.742-7.853-4.545c-2.077-3.584-6.666-4.804-10.25-2.728-3.584 2.077-4.806 6.666-2.729 10.25 4.3 7.416 12.282 12.023 20.832 12.023z"/><path d="m134.244 433.381c3.804 2.763 8.751 3.122 12.914.933l12.727-6.69 12.727 6.691c1.811.952 3.77 1.421 5.718 1.421 2.532 0 5.047-.793 7.196-2.354 3.804-2.764 5.673-7.359 4.878-11.994l-2.431-14.171 10.297-10.037c3.367-3.282 4.556-8.099 3.103-12.571-1.454-4.471-5.247-7.668-9.899-8.344l-14.229-2.068-6.363-12.894c-2.081-4.216-6.295-6.836-10.996-6.836s-8.915 2.619-10.996 6.836l-6.363 12.894-14.23 2.068c-4.653.676-8.446 3.874-9.899 8.345-1.453 4.472-.264 9.289 3.103 12.57l10.297 10.037-2.432 14.172c-.795 4.633 1.074 9.229 4.878 11.992zm13.102-44.728c3.219-.468 6-2.489 7.439-5.405l5.1-10.333 5.1 10.332c1.439 2.918 4.221 4.939 7.441 5.406l11.402 1.657-8.252 8.042c-2.33 2.272-3.393 5.543-2.841 8.747l1.947 11.356-10.197-5.361c-1.44-.758-3.02-1.136-4.6-1.136-1.579 0-3.158.379-4.598 1.136l-10.198 5.362 1.949-11.363c.547-3.204-.517-6.472-2.844-8.74l-8.251-8.042z"/><path d="m143.318 468.867h33.133c4.143 0 7.5-3.358 7.5-7.5s-3.357-7.5-7.5-7.5h-33.133c-4.143 0-7.5 3.358-7.5 7.5s3.357 7.5 7.5 7.5z"/></g></svg>